HIERARCHY
ROOT root
{
	OFFSET	0	13.1	24.9
	CHANNELS 6  Xposition Yposition Zposition Xrotation Yrotation Zrotation
	JOINT spine_1
	{
		OFFSET	0	9.99999	0
		CHANNELS 3  Xrotation Yrotation Zrotation
		JOINT spine_2
		{
			OFFSET	0	112	-10
			CHANNELS 3  Xrotation Yrotation Zrotation
			JOINT spine_3
			{
				OFFSET	0	206.5	19.3
				CHANNELS 3  Xrotation Yrotation Zrotation
				JOINT spine_4
				{
					OFFSET	0	110.4	14.6
					CHANNELS 3  Xrotation Yrotation Zrotation
					JOINT neck_1
					{
						OFFSET	0	71.8	-50.3
						CHANNELS 3  Xrotation Yrotation Zrotation
						JOINT neck_2
						{
							OFFSET	0	86.2	-25.8
							CHANNELS 3  Xrotation Yrotation Zrotation
							JOINT head_ee
							{
								OFFSET	0	179.8	-8.7
								CHANNELS 3  Xrotation Yrotation Zrotation
								End Site
								{
									OFFSET	1	0	0
								}
							}
						}
					}
					JOINT left_clavicle
					{
						OFFSET	-43.2	22.4	-70.8
						CHANNELS 3  Xrotation Yrotation Zrotation
						JOINT left_shoulder
						{
							OFFSET	-93.9	-5.79999	48.7
							CHANNELS 3  Xrotation Yrotation Zrotation
							JOINT left_elbow
							{
								OFFSET	-291.4	-30.8	15.2
								CHANNELS 3  Xrotation Yrotation Zrotation
								JOINT left_lowarm_twist
								{
									OFFSET	-110.7	-3.89999	13.6
									CHANNELS 3  Xrotation Yrotation Zrotation
									JOINT left_hand
									{
										OFFSET	-110.7	-3.89999	13.6
										CHANNELS 3  Xrotation Yrotation Zrotation
										JOINT left_ee
										{
											OFFSET	-80.8	-5.10001	12.1
											CHANNELS 3  Xrotation Yrotation Zrotation
											End Site
											{
												OFFSET	1	0	0
											}
										}
									}
								}
							}
						}
					}
					JOINT right_clavicle
					{
						OFFSET	43.2	22.4	-70.8
						CHANNELS 3  Xrotation Yrotation Zrotation
						JOINT right_shoulder
						{
							OFFSET	93.9	-5.79999	48.7
							CHANNELS 3  Xrotation Yrotation Zrotation
							JOINT right_elbow
							{
								OFFSET	291.4	-30.8	15.2
								CHANNELS 3  Xrotation Yrotation Zrotation
								JOINT right_lowarm_twist
								{
									OFFSET	110.7	-3.89999	13.6
									CHANNELS 3  Xrotation Yrotation Zrotation
									JOINT right_hand
									{
										OFFSET	110.7	-3.89999	13.6
										CHANNELS 3  Xrotation Yrotation Zrotation
										JOINT right_ee
										{
											OFFSET	80.8	-5.10001	12.1
											CHANNELS 3  Xrotation Yrotation Zrotation
											End Site
											{
												OFFSET	1	0	0
											}
										}
									}
								}
							}
						}
					}
				}
			}
		}
	}
	JOINT left_hip
	{
		OFFSET	-82.8	-127.5	0.300001
		CHANNELS 3  Xrotation Yrotation Zrotation
		JOINT left_knee
		{
			OFFSET	-28.2	-396.7	2.2
			CHANNELS 3  Xrotation Yrotation Zrotation
			JOINT left_ankle
			{
				OFFSET	-11.7	-411.3	35.4
				CHANNELS 3  Xrotation Yrotation Zrotation
				JOINT left_toes
				{
					OFFSET	0	-60	-88.6
					CHANNELS 3  Xrotation Yrotation Zrotation
					JOINT left_foot_ee
					{
						OFFSET	-22.5	-16.5	-42.2
						CHANNELS 3  Xrotation Yrotation Zrotation
						End Site
						{
							OFFSET	1	0	0
						}
					}
				}
			}
		}
	}
	JOINT right_hip
	{
		OFFSET	82.8	-127.5	0.300001
		CHANNELS 3  Xrotation Yrotation Zrotation
		JOINT right_knee
		{
			OFFSET	28.2	-396.7	2.2
			CHANNELS 3  Xrotation Yrotation Zrotation
			JOINT right_ankle
			{
				OFFSET	11.7	-411.3	35.4
				CHANNELS 3  Xrotation Yrotation Zrotation
				JOINT right_toes
				{
					OFFSET	0	-60	-88.6
					CHANNELS 3  Xrotation Yrotation Zrotation
					JOINT right_foot_ee
					{
						OFFSET	22.5	-16.5	-42.2
						CHANNELS 3  Xrotation Yrotation Zrotation
						End Site
						{
							OFFSET	1	0	0
						}
					}
				}
			}
		}
	}
}
MOTION
Frames: 8
Frame Time: 0.02
2806.14687259 706.959 -1619.31448735 1.38289959956 54.0794953202 -3.71768949831 0.812297 0.594599 2.31457 0.815167 0.446154 2.34769 0.834566 -0.0223183 2.38958 0.826773 0.355244 2.36315 -10.816 17.7427 -1.2982 -11.3771 34.3903 3.69916 -0.0 0.0 -0.0 2.14163 1.10906 4.21542 -12.4286 -18.642 52.9826 0.781699 -21.1679 0.146066 -42.5355 -3.22476 4.23676 -1.50404 14.4389 -3.44564 -0.0 0.0 -0.0 9.69284 17.9072 -18.8574 -19.0117 20.5347 -63.9578 1.09979 28.5809 -0.280145 14.736 -0.281899 1.85611 0.620555 -11.0729 -8.55494 0.0 0.0 0.0 7.9649 4.27403 1.9722 -18.7174 0.308697 2.843 -0.0385649 18.0779 0.00572544 14.3297 -0.0 -0.0 -0.0 0.0 -0.0 24.1342 35.9306 -9.21774 -60.1592 2.2172 -8.54296 37.1764 -26.5093 4.93622 -9.82623 0.0 0.0 0.0 0.0 0.0 
2795.31004615 714.673 -1611.50877525 0.564803930964 54.4824304405 -3.48831994233 0.858349 0.735724 2.23693 0.860939 0.59193 2.27918 0.88562 0.136276 2.35081 0.878264 0.505733 2.29983 -9.29755 19.2643 -0.24561 -9.69356 36.3969 4.61786 -0.0 0.0 -0.0 2.00232 0.740232 3.91909 -10.9943 -17.5167 51.8752 0.888 -23.7439 0.18668 -44.4435 -3.43564 4.36122 -2.39733 16.6838 -7.89288 -0.0 0.0 -0.0 9.84963 17.8011 -19.2131 -19.4297 20.2799 -64.4767 0.878035 23.5065 -0.182687 14.4112 -0.280864 1.81464 0.500779 -12.3951 -8.29153 0.0 0.0 0.0 6.51675 5.43583 3.82072 -16.1087 0.321677 2.44299 3.03325 20.2283 -0.450237 14.394 -0.0 -0.0 -0.0 0.0 -0.0 26.2785 36.2783 -11.5244 -55.788 1.76274 -8.04531 36.9137 -25.915 4.88983 -11.1934 0.0 0.0 0.0 0.0 0.0 
2786.26537912 717.402 -1600.71247993 -0.0198203995133 55.8202349185 -3.24448169993 0.893268 0.794263 2.1424 0.895582 0.65636 2.18857 0.921733 0.21862 2.27435 0.914976 0.57498 2.21134 -8.44279 20.4598 0.797163 -8.72659 37.8153 5.63103 -0.0 0.0 -0.0 1.78954 0.0936532 3.45547 -9.14117 -17.0217 50.3593 1.01871 -26.7768 0.24248 -45.8154 -3.58977 4.44635 -3.09033 18.446 -11.2253 -0.0 0.0 -0.0 9.88889 17.7608 -19.3031 -19.8893 20.0329 -64.5984 0.687673 18.8116 -0.113916 14.1331 -0.279791 1.77914 0.385587 -13.6868 -8.05266 0.0 0.0 0.0 5.21981 6.56607 4.70728 -14.2963 0.319969 2.16494 5.2057 21.8472 -0.773269 14.4371 -0.0 -0.0 -0.0 0.0 -0.0 27.6289 36.0681 -12.2539 -51.2158 1.3297 -7.4898 36.6992 -25.4698 4.85379 -12.1843 0.0 0.0 0.0 0.0 0.0 
2777.72276126 721.037 -1588.10132508 -1.69932160167 56.6115395267 -1.87424065854 0.969412 0.812268 2.08963 0.971586 0.677685 2.13705 0.997859 0.252525 2.22762 0.991438 0.601085 2.15984 -7.87231 21.3262 1.54696 -8.06599 38.8291 6.36001 -0.0 0.0 -0.0 1.66102 -0.48692 3.15577 -7.57569 -16.8516 49.0746 1.13031 -29.2444 0.2949 -46.7859 -3.70001 4.50433 -3.59298 19.7008 -13.598 -0.0 0.0 -0.0 9.93064 17.7295 -19.3982 -20.1977 19.8656 -64.7014 0.560749 15.5243 -0.0764365 13.9372 -0.278932 1.75412 0.302474 -14.6282 -7.88853 0.0 0.0 0.0 4.0452 7.26828 4.85884 -12.8546 0.312331 1.94387 6.70901 22.9305 -0.997204 14.453 -0.0 -0.0 -0.0 0.0 -0.0 28.5435 35.9559 -12.4496 -48.021 1.05422 -7.08227 36.5259 -25.1675 4.8267 -12.8878 0.0 0.0 0.0 0.0 0.0 
2744.85194666 716.539 -1578.36845321 0.921227229468 57.1819307874 -4.32542911302 0.589384 0.816235 2.49431 0.592606 0.655914 2.54116 0.623381 0.136023 2.62086 0.614215 0.548096 2.56656 -8.10125 21.7879 2.00656 -8.34672 39.4287 7.01667 -0.0 0.0 -0.0 1.55712 2.68514 3.24265 -2.95152 -15.7048 45.1014 1.69562 -40.0256 0.617623 -50.456 -4.12532 4.70654 -4.58162 22.6887 -17.7732 -0.0 0.0 -0.0 9.62355 16.8675 -18.7642 -21.3368 18.819 -64.8391 0.387084 10.8549 -0.0367775 13.3906 -0.276082 1.68437 -0.0325401 -18.4955 -7.30126 0.0 0.0 0.0 -2.71309 8.69337 6.47882 -11.8818 0.304034 1.79484 13.2166 23.925 -1.93395 16.0224 -0.0 -0.0 -0.0 0.0 -0.0 32.801 35.1657 -12.0463 -39.8937 0.460021 -5.98341 35.3493 -24.9427 4.69727 -15.1008 0.0 0.0 0.0 0.0 0.0 
2730.51049947 712.498 -1574.85764306 0.883214733993 57.0675208317 -4.53992793457 0.510141 0.683606 2.61275 0.513791 0.516025 2.65091 0.539434 -0.0270618 2.7005 0.52948 0.399617 2.67093 -8.31363 21.4329 1.42485 -8.59993 39.1991 6.44722 -0.0 0.0 -0.0 1.56896 5.06682 3.474 -0.850312 -15.7576 43.3041 2.09611 -46.0722 0.891384 -52.4246 -4.35851 4.80367 -4.93424 23.4286 -19.4265 -0.0 0.0 -0.0 9.56999 16.9804 -18.6389 -21.6693 18.3169 -64.4056 0.301011 8.48118 -0.0223194 13.0547 -0.274001 1.64152 -0.250175 -21.1485 -7.02155 0.0 0.0 0.0 -5.36643 9.60172 9.67131 -10.6219 0.289532 1.60207 17.1009 24.0484 -2.46866 17.103 -0.0 -0.0 -0.0 0.0 -0.0 34.8939 33.8185 -12.9686 -36.2138 0.243624 -5.46096 34.593 -24.8544 4.61448 -16.2446 0.0 0.0 0.0 0.0 0.0 
2708.78271749 708.891 -1569.7677479 0.58490799309 55.3525949865 -5.14098885979 0.375336 0.626146 2.90481 0.379923 0.440119 2.93872 0.404706 -0.166358 2.96681 0.392552 0.304073 2.95588 -9.19486 20.8473 0.518071 -9.64711 38.8606 5.77075 -0.0 0.0 -0.0 1.64506 6.71099 3.75162 0.648626 -15.8331 42.0794 2.43254 -50.3041 1.14232 -53.3686 -4.47147 4.84738 -5.17914 23.95 -20.5604 -0.0 0.0 -0.0 9.55418 17.0566 -18.5995 -21.871 17.9704 -64.114 0.241283 6.81607 -0.0143688 12.8188 -0.272389 1.61143 -0.367451 -23.1751 -7.12182 0.0 0.0 0.0 -7.25206 10.1334 11.7568 -9.08949 0.266184 1.3681 19.8903 25.4362 -2.86138 17.8448 -0.0 -0.0 -0.0 0.0 -0.0 36.224 32.6042 -13.2064 -33.2646 0.0947593 -5.03311 34.068 -24.9047 4.55949 -17.0481 0.0 0.0 0.0 0.0 0.0 
2707.79369206 708.891 -1574.54031219 0.576445258091 54.7692520387 -5.1306655821 0.375336 0.626146 2.90481 0.379923 0.440119 2.93872 0.404706 -0.166358 2.96681 0.392552 0.304073 2.95588 -9.19486 20.8473 0.518071 -9.64711 38.8606 5.77075 -0.0 0.0 -0.0 1.64506 6.71099 3.75162 0.648626 -15.8331 42.0794 2.43254 -50.3041 1.14232 -53.3686 -4.47147 4.84738 -5.17914 23.95 -20.5604 -0.0 0.0 -0.0 9.55418 17.0566 -18.5995 -21.871 17.9704 -64.114 0.241283 6.81607 -0.0143688 12.8188 -0.272389 1.61143 -0.367451 -23.1751 -7.12182 0.0 0.0 0.0 -7.25206 10.1334 11.7568 -9.08949 0.266184 1.3681 19.8903 25.4362 -2.86138 17.8448 -0.0 -0.0 -0.0 0.0 -0.0 36.224 32.6042 -13.2064 -33.2646 0.0947593 -5.03311 34.068 -24.9047 4.55949 -17.0481 0.0 0.0 0.0 0.0 0.0 
